<svg width="9" height="9" viewBox="0 0 9 9" fill="none" xmlns="http://www.w3.org/2000/svg">
<path d="M3.46667 0.8C3.46667 0.358333 3.825 0 4.26667 0C4.70833 0 5.06667 0.358333 5.06667 0.8C5.06667 1.24167 4.70833 1.6 4.26667 1.6C3.825 1.6 3.46667 1.24167 3.46667 0.8ZM3.46667 7.73333C3.46667 7.29167 3.825 6.93333 4.26667 6.93333C4.70833 6.93333 5.06667 7.29167 5.06667 7.73333C5.06667 8.175 4.70833 8.53333 4.26667 8.53333C3.825 8.53333 3.46667 8.175 3.46667 7.73333ZM0.8 3.46667C1.24167 3.46667 1.6 3.825 1.6 4.26667C1.6 4.70833 1.24167 5.06667 0.8 5.06667C0.358333 5.06667 0 4.70833 0 4.26667C0 3.825 0.358333 3.46667 0.8 3.46667ZM6.93333 4.26667C6.93333 3.825 7.29167 3.46667 7.73333 3.46667C8.175 3.46667 8.53333 3.825 8.53333 4.26667C8.53333 4.70833 8.175 5.06667 7.73333 5.06667C7.29167 5.06667 6.93333 4.70833 6.93333 4.26667ZM1.25 6.15167C1.56333 5.83833 2.06833 5.83833 2.38167 6.15167C2.695 6.465 2.695 6.97 2.38167 7.28333C2.06833 7.59667 1.56333 7.59667 1.25 7.28333C0.936667 6.97 0.936667 6.465 1.25 6.15167ZM1.25 1.25C1.56333 0.936667 2.06833 0.936667 2.38167 1.25C2.695 1.56333 2.695 2.06833 2.38167 2.38167C2.06833 2.695 1.56333 2.695 1.25 2.38167C0.936667 2.06833 0.936667 1.56333 1.25 1.25ZM7.28333 6.15167C7.59667 6.465 7.59667 6.97 7.28333 7.28333C6.97 7.59667 6.465 7.59667 6.15167 7.28333C5.83833 6.97 5.83833 6.465 6.15167 6.15167C6.465 5.83833 6.97 5.83833 7.28333 6.15167Z" fill="white"/>
</svg>
