<svg width="18" height="20" viewBox="0 0 18 20" fill="none" xmlns="http://www.w3.org/2000/svg">
<path d="M0.60375 0L0.0712501 5.67375C0.0262501 5.895 0 6.12375 0 6.3525C0 8.07375 1.31625 9.4875 3 9.64125V19.2563H5.4V9.64125C7.08375 9.4875 8.4 8.07375 8.4 6.3525C8.4 6.12375 8.3775 5.89875 8.32875 5.67375L7.79625 0H6.6L6.04875 6.0525H5.295L4.79625 0.00374994H3.6L3.10125 6.0525H2.3475L1.79625 0H0.6H0.60375ZM17.4 0.05625C15.6 0.05625 11.4 1.25625 11.4 6.65625V13.2563H15V19.2563H17.4V0.05625Z" fill="#444444"/>
</svg>
