<svg width="15" height="20" viewBox="0 0 15 20" fill="none" xmlns="http://www.w3.org/2000/svg">
<path d="M0.525 0.0818705C0.84375 -0.0643795 1.21875 -0.0118792 1.485 0.216871L3 1.51437L4.515 0.216871C4.8525 -0.0718792 5.35125 -0.0718792 5.685 0.216871L7.2 1.51437L8.715 0.216871C9.0525 -0.0718792 9.5475 -0.0718792 9.885 0.216871L11.4 1.51437L12.915 0.216871C13.1812 -0.0118792 13.5562 -0.0643795 13.875 0.0818705C14.1937 0.228121 14.4 0.546871 14.4 0.899371V18.2994C14.4 18.6519 14.1937 18.9706 13.875 19.1169C13.5562 19.2631 13.1812 19.2106 12.915 18.9819L11.4 17.6844L9.885 18.9819C9.5475 19.2706 9.0525 19.2706 8.715 18.9819L7.2 17.6844L5.685 18.9819C5.3475 19.2706 4.84875 19.2706 4.515 18.9819L3 17.6844L1.485 18.9819C1.21875 19.2106 0.84375 19.2631 0.525 19.1169C0.20625 18.9706 0 18.6519 0 18.2994V0.899371C0 0.546871 0.20625 0.228121 0.525 0.0818705ZM3.9 5.09937C3.40125 5.09937 3 5.50062 3 5.99937C3 6.49812 3.40125 6.89937 3.9 6.89937H10.5C10.9987 6.89937 11.4 6.49812 11.4 5.99937C11.4 5.50062 10.9987 5.09937 10.5 5.09937H3.9ZM3 13.1994C3 13.6981 3.40125 14.0994 3.9 14.0994H10.5C10.9987 14.0994 11.4 13.6981 11.4 13.1994C11.4 12.7006 10.9987 12.2994 10.5 12.2994H3.9C3.40125 12.2994 3 12.7006 3 13.1994ZM3.9 8.69937C3.40125 8.69937 3 9.10062 3 9.59937C3 10.0981 3.40125 10.4994 3.9 10.4994H10.5C10.9987 10.4994 11.4 10.0981 11.4 9.59937C11.4 9.10062 10.9987 8.69937 10.5 8.69937H3.9Z" fill="#444444"/>
</svg>
