<svg width="20" height="20" viewBox="0 0 20 20" fill="none" xmlns="http://www.w3.org/2000/svg">
<path d="M7.8 1.8C7.8 0.80625 8.60625 0 9.6 0C10.5938 0 11.4 0.80625 11.4 1.8C11.4 2.79375 10.5938 3.6 9.6 3.6C8.60625 3.6 7.8 2.79375 7.8 1.8ZM7.8 17.4C7.8 16.4062 8.60625 15.6 9.6 15.6C10.5938 15.6 11.4 16.4062 11.4 17.4C11.4 18.3938 10.5938 19.2 9.6 19.2C8.60625 19.2 7.8 18.3938 7.8 17.4ZM1.8 7.8C2.79375 7.8 3.6 8.60625 3.6 9.6C3.6 10.5938 2.79375 11.4 1.8 11.4C0.80625 11.4 0 10.5938 0 9.6C0 8.60625 0.80625 7.8 1.8 7.8ZM15.6 9.6C15.6 8.60625 16.4062 7.8 17.4 7.8C18.3938 7.8 19.2 8.60625 19.2 9.6C19.2 10.5938 18.3938 11.4 17.4 11.4C16.4062 11.4 15.6 10.5938 15.6 9.6ZM2.8125 13.8413C3.5175 13.1363 4.65375 13.1363 5.35875 13.8413C6.06375 14.5463 6.06375 15.6825 5.35875 16.3875C4.65375 17.0925 3.5175 17.0925 2.8125 16.3875C2.1075 15.6825 2.1075 14.5463 2.8125 13.8413ZM2.8125 2.8125C3.5175 2.1075 4.65375 2.1075 5.35875 2.8125C6.06375 3.5175 6.06375 4.65375 5.35875 5.35875C4.65375 6.06375 3.5175 6.06375 2.8125 5.35875C2.1075 4.65375 2.1075 3.5175 2.8125 2.8125ZM16.3875 13.8413C17.0925 14.5463 17.0925 15.6825 16.3875 16.3875C15.6825 17.0925 14.5463 17.0925 13.8413 16.3875C13.1363 15.6825 13.1363 14.5463 13.8413 13.8413C14.5463 13.1363 15.6825 13.1363 16.3875 13.8413Z" fill="#444444"/>
</svg>
