<svg width="5" height="8" viewBox="0 0 5 8" fill="none" xmlns="http://www.w3.org/2000/svg">
<path d="M1 2.5C1 1.67188 1.67188 1 2.5 1C3.32812 1 4 1.67188 4 2.5C4 3.16719 3.56406 3.73281 2.96094 3.92812C2.51719 4.07188 2 4.47969 2 5.125V5.5C2 5.77656 2.22344 6 2.5 6C2.77656 6 3 5.77656 3 5.5V5.125C3 5.09844 3.00938 5.06094 3.05469 5.01094C3.10156 4.95938 3.17813 4.90937 3.26875 4.87969C4.27344 4.55625 5 3.61406 5 2.5C5 1.11875 3.88125 0 2.5 0C1.11875 0 0 1.11875 0 2.5C0 2.77656 0.223437 3 0.5 3C0.776563 3 1 2.77656 1 2.5ZM2.5 8C2.84531 8 3.125 7.72031 3.125 7.375C3.125 7.02969 2.84531 6.75 2.5 6.75C2.15469 6.75 1.875 7.02969 1.875 7.375C1.875 7.72031 2.15469 8 2.5 8Z" fill="white"/>
</svg>
