<svg width="15" height="18" viewBox="0 0 15 18" fill="none" xmlns="http://www.w3.org/2000/svg">
<path d="M9.37406 1.90546C9.76406 1.36921 9.64406 0.619214 9.10781 0.229214C8.57156 -0.160786 7.82156 -0.0407858 7.43156 0.495464L3.45656 5.95921L2.05031 4.55296C1.58156 4.08421 0.820312 4.08421 0.351562 4.55296C-0.117187 5.02171 -0.117187 5.78296 0.351562 6.25171L2.75156 8.65171C2.99906 8.89921 3.34406 9.02671 3.69281 9.00046C4.04156 8.97421 4.36406 8.79421 4.57031 8.50921L9.37031 1.90921L9.37406 1.90546ZM14.1741 7.00546C14.5641 6.46921 14.4441 5.71921 13.9078 5.32921C13.3716 4.93921 12.6216 5.05921 12.2316 5.59546L5.85656 14.3592L3.25031 11.753C2.78156 11.2842 2.02031 11.2842 1.55156 11.753C1.08281 12.2217 1.08281 12.983 1.55156 13.4517L5.15156 17.0517C5.39906 17.2992 5.74406 17.4267 6.09281 17.4005C6.44156 17.3742 6.76406 17.1942 6.97031 16.9092L14.1703 7.00921L14.1741 7.00546Z" fill="#444444"/>
</svg>
