<svg width="6" height="6" viewBox="0 0 6 6" fill="none" xmlns="http://www.w3.org/2000/svg">
<path d="M0.854297 0.148047C0.658984 -0.0472658 0.341797 -0.0472658 0.146484 0.148047C-0.0488281 0.343359 -0.0488281 0.660547 0.146484 0.855859L2.29336 3.00117L0.148047 5.14805C-0.0472658 5.34336 -0.0472658 5.66055 0.148047 5.85586C0.343359 6.05117 0.660547 6.05117 0.855859 5.85586L3.00117 3.70898L5.14805 5.8543C5.34336 6.04961 5.66055 6.04961 5.85586 5.8543C6.05117 5.65898 6.05117 5.3418 5.85586 5.14648L3.70898 3.00117L5.8543 0.854297C6.04961 0.658984 6.04961 0.341797 5.8543 0.146484C5.65898 -0.0488281 5.3418 -0.0488281 5.14648 0.146484L3.00117 2.29336L0.854297 0.148047Z" fill="white"/>
</svg>
