<svg width="24" height="24" viewBox="0 0 24 24" fill="none" xmlns="http://www.w3.org/2000/svg">
<path d="M22.125 10.5H1.875C1.66875 10.5 1.5 10.6687 1.5 10.875V12.375C1.5 12.5812 1.66875 12.75 1.875 12.75H4.125L5.09625 14.0438C5.19 14.1713 5.385 14.25 5.59875 14.25H18.405C18.6188 14.25 18.8137 14.1713 18.9075 14.0438L19.8787 12.75H22.1287C22.335 12.75 22.5037 12.5812 22.5037 12.375V10.875C22.5037 10.6687 22.335 10.5 22.1287 10.5H22.125Z" fill="#444444"/>
<path d="M16.1252 1.875H7.8752L5.1377 9.75H13.3877L16.1252 1.875ZM12.8177 5.17875L9.7502 7.42875C9.68645 7.47375 9.6077 7.5 9.52894 7.5C9.50644 7.5 9.48019 7.49625 9.4577 7.4925C9.35644 7.47375 9.26644 7.41375 9.2102 7.3275L8.49769 6.2025C8.3852 6.02625 8.43769 5.79375 8.61019 5.685C8.78644 5.5725 9.01895 5.625 9.1277 5.7975L9.6302 6.585L12.3752 4.57125C12.5439 4.45125 12.7764 4.485 12.9002 4.65375C13.0202 4.81875 12.9864 5.055 12.8177 5.17875Z" fill="#444444"/>
<path d="M18.8626 9.75062L16.5226 3.01562L14.1826 9.75062H18.8626Z" fill="#444444"/>
<path d="M13.125 15H10.875V22.5H13.125V15Z" fill="#444444"/>
</svg>
