<svg width="21" height="21" viewBox="0 0 21 21" fill="none" xmlns="http://www.w3.org/2000/svg">
<path d="M4.8 0C5.46375 0 6 0.53625 6 1.2V2.4H10.8V1.2C10.8 0.53625 11.3363 0 12 0C12.6638 0 13.2 0.53625 13.2 1.2V2.4H14.4C15.7238 2.4 16.8 3.47625 16.8 4.8V6.6H0V4.8C0 3.47625 1.07625 2.4 2.4 2.4H3.6V1.2C3.6 0.53625 4.13625 0 4.8 0ZM0 8.4H12.1163C9.57375 9.51 7.8 12.0488 7.8 15C7.8 16.0725 8.0325 17.085 8.4525 18H2.4C1.07625 18 0 16.9237 0 15.6V8.4ZM9.6 15C9.6 12.0188 12.0188 9.6 15 9.6C17.9813 9.6 20.4 12.0188 20.4 15C20.4 17.9813 17.9813 20.4 15 20.4C12.0188 20.4 9.6 17.9813 9.6 15ZM15 12C14.67 12 14.4 12.27 14.4 12.6V15C14.4 15.33 14.67 15.6 15 15.6H16.8C17.13 15.6 17.4 15.33 17.4 15C17.4 14.67 17.13 14.4 16.8 14.4H15.6V12.6C15.6 12.27 15.33 12 15 12Z" fill="#444444"/>
</svg>
