<svg width="20" height="16" viewBox="0 0 20 16" fill="none" xmlns="http://www.w3.org/2000/svg">
<path d="M4 16L5.5 12.25C5.65 11.8667 5.89167 11.5625 6.225 11.3375C6.55833 11.1125 6.93333 11 7.35 11H9V6.975C6.45 6.89167 4.3125 6.51667 2.5875 5.85C0.8625 5.18333 0 4.4 0 3.5C0 2.53333 0.975 1.70833 2.925 1.025C4.875 0.341667 7.23333 0 10 0C12.7833 0 15.1458 0.341667 17.0875 1.025C19.0292 1.70833 20 2.53333 20 3.5C20 4.4 19.1375 5.18333 17.4125 5.85C15.6875 6.51667 13.55 6.89167 11 6.975V11H12.65C13.05 11 13.4208 11.1125 13.7625 11.3375C14.1042 11.5625 14.35 11.8667 14.5 12.25L16 16H14L12.8 13H7.2L6 16H4Z" fill="#444444"/>
</svg>
