<svg width="24" height="20" viewBox="0 0 24 20" fill="none" xmlns="http://www.w3.org/2000/svg">
<path d="M5.83477 0.649881C6.11227 0.113631 6.74602 -0.133869 7.31227 0.0723805L11.9998 1.78238L16.6873 0.0723805C17.2535 -0.133869 17.8873 0.113631 18.1648 0.649881L21.1198 6.38363C22.1998 8.47613 21.506 10.9699 19.676 12.2561L20.8498 15.4886L22.3873 14.9261C23.0098 14.7011 23.6998 15.0199 23.9248 15.6424C24.1498 16.2649 23.831 16.9549 23.2085 17.1799C21.431 17.8286 19.6535 18.4736 17.876 19.1224C17.2535 19.3511 16.5635 19.0286 16.3385 18.4061C16.1135 17.7836 16.4323 17.0936 17.0548 16.8686L18.5923 16.3061L17.4185 13.0736C15.191 13.2686 13.061 11.8024 12.5435 9.50363L11.996 7.07738L11.4485 9.50363C10.931 11.8024 8.80102 13.2686 6.57352 13.0736L5.39977 16.3061L6.93727 16.8686C7.55977 17.0974 7.88227 17.7836 7.65352 18.4061C7.42477 19.0286 6.73852 19.3511 6.11602 19.1224C4.33852 18.4736 2.56102 17.8249 0.783515 17.1799C0.161015 16.9511 -0.161485 16.2649 0.0672652 15.6424C0.296015 15.0199 0.986015 14.7011 1.60852 14.9261L3.14602 15.4886L4.31977 12.2561C2.49352 10.9699 1.80352 8.47613 2.88352 6.38363L5.83477 0.649881ZM7.48477 2.68988L6.46477 4.66988L9.80977 5.88863L10.301 3.71738L7.48477 2.68988ZM16.5185 2.68988L13.7023 3.71738L14.1935 5.88863L17.5385 4.66988L16.5185 2.68988Z" fill="#444444"/>
</svg>
